<svg xmlns="http://www.w3.org/2000/svg" viewBox="0 0 256 256" role="img" aria-label="Hidden Agenda icon">
  <defs>
    <linearGradient id="bg" x1="0" y1="0" x2="1" y2="1">
      <stop offset="0%" stop-color="#111827"/>
      <stop offset="100%" stop-color="#0f1115"/>
    </linearGradient>
    <linearGradient id="hat" x1="0" y1="0" x2="1" y2="1">
      <stop offset="0%" stop-color="#60a5fa"/>
      <stop offset="100%" stop-color="#3b82f6"/>
    </linearGradient>
    <filter id="shadow" x="-20%" y="-20%" width="140%" height="140%">
      <feDropShadow dx="0" dy="4" stdDeviation="4" flood-color="#000000" flood-opacity="0.35"/>
    </filter>
  </defs>

  <rect x="8" y="8" width="240" height="240" rx="52" fill="url(#bg)"/>

  <g filter="url(#shadow)">
    <ellipse cx="128" cy="142" rx="78" ry="20" fill="#1f2937" stroke="#93c5fd" stroke-width="6"/>
    <path d="M72 136 C86 95, 111 78, 128 78 C145 78, 170 95, 184 136 Z"
          fill="url(#hat)" stroke="#bfdbfe" stroke-width="6" stroke-linejoin="round"/>
    <path d="M86 122 C104 115, 152 115, 170 122" fill="none" stroke="#1e3a8a" stroke-width="7" stroke-linecap="round"/>
  </g>

  <g filter="url(#shadow)">
    <path d="M126 155 C126 141, 136 135, 146 130 C157 124, 162 118, 162 109 C162 95, 151 86, 135 86 C120 86, 108 93, 101 106"
          fill="none" stroke="#fbbf24" stroke-width="12" stroke-linecap="round" stroke-linejoin="round"/>
    <circle cx="128" cy="182" r="8" fill="#fbbf24"/>
  </g>

  <path d="M40 60 C70 30, 110 24, 150 28" fill="none" stroke="#ffffff" stroke-opacity="0.12" stroke-width="8" stroke-linecap="round"/>
</svg>
